<?xml version="1.0" encoding="UTF-8" standalone="no"?>
<!-- Created with Inkscape (http://www.inkscape.org/) -->

<svg
   width="5in"
   height="5in"
   viewBox="0 0 5000 5000"
   version="1.1"
   id="svg1"
   xml:space="preserve"
   inkscape:version="1.4.2 (ebf0e940, 2025-05-08)"
   sodipodi:docname="Mazha.svg"
   xmlns:inkscape="http://www.inkscape.org/namespaces/inkscape"
   xmlns:sodipodi="http://sodipodi.sourceforge.net/DTD/sodipodi-0.dtd"
   xmlns="http://www.w3.org/2000/svg"
   xmlns:svg="http://www.w3.org/2000/svg"><sodipodi:namedview
     id="namedview1"
     pagecolor="#ffffff"
     bordercolor="#000000"
     borderopacity="0.25"
     inkscape:showpageshadow="2"
     inkscape:pageopacity="0.0"
     inkscape:pagecheckerboard="false"
     inkscape:deskcolor="#d1d1d1"
     inkscape:document-units="in"
     inkscape:zoom="1.4142136"
     inkscape:cx="71.064231"
     inkscape:cy="237.94143"
     inkscape:window-width="1920"
     inkscape:window-height="1080"
     inkscape:window-x="0"
     inkscape:window-y="0"
     inkscape:window-maximized="0"
     inkscape:current-layer="layer3" /><defs
     id="defs1" /><g
     inkscape:groupmode="layer"
     id="layer3"
     inkscape:label="BG"
     style="display:inline;opacity:0.9"><circle
       style="opacity:1;fill:#206035;stroke:none;stroke-width:10.4546;stroke-dasharray:none"
       id="path1"
       cx="2500"
       cy="2500"
       r="2300" /><circle
       style="fill:#476b47;stroke:#b3ccb3;stroke-width:51.8921;stroke-dasharray:none;stroke-opacity:1"
       id="path2"
       cx="2500"
       cy="2500"
       r="2174.054" /></g><g
     inkscape:groupmode="layer"
     id="layer4"
     inkscape:label="FG"
     style="display:inline;opacity:1"><path
       style="display:inline;fill:#e0c9b8"
       d="m 1796.814,881.49007 c -6.5407,0.14129 -14.4499,13.15986 -27.8728,40.05941 -12.1764,24.40164 -43.5798,77.36019 -69.7835,117.69612 -97.9225,150.734 -131.6134,262.3008 -104.5329,346.1507 9.2147,28.5317 9.2182,28.5373 -22.9288,55.7455 -95.5787,80.8951 -161.8861,164.7401 -220.1945,278.483 -31.6506,61.7412 -43.9455,90.1775 -70.5974,163.2284 -11.4917,31.4979 -14.4427,31.6105 -46.3663,1.7497 -16.956,-15.8604 -51.5674,-36.5961 -103.0681,-61.7269 -42.6516,-20.8128 -100.233,-51.61 -127.95,-68.4408 -62.68095,-38.0622 -60.22413,-41.7341 -54.60613,81.6651 11.96181,262.7404 49.16087,333.259 202.12813,383.2194 53.9583,17.6233 53.9533,17.6302 53.5888,43.5994 -7.9215,564.3753 -31.8206,721.9301 -126.709,835.3475 -28.8748,34.5133 -35.1951,33.9778 -50.6998,-4.1707 -41.73805,-102.6941 -212.63318,-248.8715 -348.30731,-297.933 -22.25778,-8.0487 -56.70235,-20.7829 -76.53809,-28.2999 -52.45498,-19.8786 -63.88041,-11.6277 -42.33805,30.5989 5.84559,11.4583 15.37163,42.3215 21.15885,68.5832 57.73998,262.0169 234.93407,439.6591 384.257,385.2132 22.79922,-8.313 47.9109,-12.3198 84.7168,-13.5498 142.2009,-4.752 249.602,-110.6897 258.6263,-255.1066 3.2208,-51.5434 1.912,-52.5277 -34.9935,-26.3062 -54.5741,38.775 -82.2678,45.2032 -71.3704,16.5406 2.9696,-7.8105 11.6241,-36.4328 19.2464,-63.5987 15.8231,-56.394 24.0755,-68.2479 47.5667,-68.3797 197.7667,-1.1095 369.0926,-201.1639 376.5259,-439.6566 2.0073,-64.4015 12.6982,-62.5723 -100.8301,-17.2933 -47.4832,18.938 -103.3768,40.8958 -124.2065,48.7875 -53.7129,20.3503 -102.5784,50.2965 -135.7015,83.1705 -15.6985,15.5805 -30.1269,28.3204 -32.0638,28.3204 -24.1771,0 14.4785,-433.5486 49.764,-558.1462 22.2376,-78.5234 20.9367,-77.1043 73.7711,-79.3457 48.1389,-2.0422 103.9964,-25.5923 210.1441,-88.562 59.2464,-35.1466 179.3083,-148.5125 218.6076,-206.4209 18.3769,-27.0787 -95.8211,-65.8504 -203.654,-69.1325 -60.9843,-1.8562 -61.4749,-3.2154 -15.9302,-46.0205 98.6568,-92.7225 244.0573,-133.3232 366.5161,-102.356 57.9722,14.6599 57.807,14.4549 45.634,55.6844 -42.0414,142.3928 23.0439,325.6259 171.0205,481.486 39.0099,41.0882 74.0974,68.3713 75.4801,58.6955 0.3421,-2.3936 0.2947,-28.6319 -0.1017,-58.3089 -0.9314,-69.6939 26.5416,-272.0077 35.4411,-260.9863 55.4706,68.6959 135.3241,337.7475 116.3126,391.8864 -3.0565,8.7038 2.9796,7.4573 -190.0431,39.0421 -355.6849,58.2017 -322.9458,41.7062 -294.4743,148.4172 73.1532,274.1778 77.3448,477.0388 12.8785,623.0062 -103.8645,235.1747 -65.4204,395.971 117.0247,489.5833 97.6393,50.0985 142.6687,57.5423 445.1497,73.6084 74.2198,3.9421 174.8845,3.0962 227.7019,-1.9124 326.0873,-30.9227 419.802,-170.939 320.2514,-478.5157 -64.0928,-198.0245 -62.5029,-190.6114 -68.6238,-319.9666 -10.6851,-225.8116 1.3854,-357.913 42.0328,-460.0423 22.0181,-55.3219 22.2354,-54.6398 -21.1181,-68.0135 -85.1254,-26.2593 -206.618,-39.2787 -380.1066,-40.7512 -77.8585,-0.6608 -142.9082,-2.5476 -144.5516,-4.191 -6.4648,-6.4648 67.2643,-185.4782 143.1478,-347.5749 105.703,-225.7951 269.1436,-375.6783 418.0908,-383.3822 87.4827,-4.5248 126.1652,10.1318 73.1811,27.7303 -35.8408,11.9044 -74.801,41.8565 -156.7586,120.4834 -73.0249,70.0572 -78.4603,82.2703 -31.8807,71.5332 57.1654,-13.1771 138.1783,-5.0481 274.6989,27.5676 66.3251,15.8455 159.0659,19.0227 211.8734,7.2632 76.0668,-16.939 124.5717,74.8159 203.8777,385.6811 22.237,87.1646 25.4947,82.4679 -43.4366,62.6221 -43.8409,-12.6221 -181.9781,-11.5914 -278.0559,2.0548 -41.4624,5.889 -77.2013,10.7365 -79.4271,10.7829 -13.4338,0.2802 1.1067,12.9677 35.0749,30.599 41.5648,21.5743 80.8658,58.3146 202.535,189.3514 77.6788,83.6595 120.4278,111.7256 199.6867,131.1238 29.4397,7.2053 31.4862,12.7361 36.0107,97.1477 13.4824,251.5363 48.5771,436.7961 107.544,567.7693 26.879,59.7017 20.5927,67.0145 -33.1014,38.4522 -76.2595,-40.5658 -249.3741,-12.6183 -351.5422,56.7627 -40.4006,27.4356 -44.6921,19.7606 33.1218,59.143 36.3544,18.3993 91.5808,51.855 122.7417,74.3409 117.0362,84.454 245.4744,123.4716 336.2426,102.1728 48.9072,-11.4761 61.7805,-10.7182 87.3414,5.0252 19.6455,12.1 43.3993,14.8177 69.4783,9.786 6.0225,-1.162 12.1856,-2.7511 18.4326,-4.7201 108.6636,-34.249 247.9101,-187.5491 300.6795,-354.5939 20.23,-64.0395 18.429,-68.1323 -19.5312,-44.1691 -12.058,7.6119 -58.7485,28.5061 -103.7598,46.4274 -125.1564,49.8311 -183.4626,87.6155 -235.616,152.6693 -13.3547,16.658 -29.1395,36.2531 -35.0749,43.5588 -21.8213,26.8592 -107.8593,-116.3894 -159.0373,-264.8112 -26.6682,-77.3406 -27.4326,-68.6324 8.016,-91.3086 142.7105,-91.2908 202.6774,-317.3095 137.4105,-517.924 -24.8916,-76.5105 -27.0263,-77.9845 -46.9361,-32.5521 -29.3911,67.0678 -148.1062,219.4785 -168.7825,216.6951 -9.3749,-1.262 -11.3501,-16.2976 -24.1292,-184.4075 -4.7375,-62.3218 -11.0678,-131.5305 -14.0788,-153.7883 -11.9567,-88.3854 -22.9046,-155.9294 -32.3487,-199.6459 -8.8114,-40.788 -9.0167,-47.0638 -1.892,-56.661 60.7109,-81.7795 74.1865,-122.3678 91.4103,-275.1872 13.6023,-120.6871 7.8282,-200.1286 -24.4141,-335.7544 -21.708,-91.3138 -26.0985,-97.6652 -45.6136,-65.8773 -8.0787,13.1591 -21.2962,33.6411 -29.3783,45.5119 -33.7004,49.4985 -106.7031,184.4229 -119.6085,221.0694 -12.9739,36.8405 -15.2639,36.1436 -48.055,-14.2009 -139.8271,-214.6787 -399.8649,-317.2275 -589.8234,-232.605 -36.6213,16.314 -43.1447,13.1642 -36.0515,-17.4357 28.0457,-120.9882 -22.4089,-272.8044 -123.6165,-371.98892 -37.8477,-37.09121 -39.1736,-36.71637 -44.4946,13.08187 -2.5813,24.15843 -20.2418,85.68635 -49.9064,173.86885 -86.13,256.0341 -91.3621,340.5805 -25.7365,415.3239 23.0541,26.2572 22.8892,26.8817 -26.4283,109.0698 -35.5807,59.2957 -89.7625,170.7004 -138.0818,283.8745 -9.9098,23.2111 -19.978,14.1805 -25.7162,-23.0509 -43.6543,-283.2467 -307.0315,-560.1912 -538.798,-566.5691 -44.4857,-1.2242 -44.4678,-1.2315 -43.2943,-25.5127 7.1546,-148.0314 -6.8905,-305.85779 -34.5459,-388.26493 -6.4491,-19.2172 -11.1558,-29.11637 -16.927,-28.9917 z"
       id="path16" /><path
       id="path36"
       style="display:inline;fill:#a98c70"
       d="m 1796.814,881.49007 c -6.5407,0.14129 -14.4499,13.15986 -27.8728,40.05941 -12.1764,24.40164 -43.5798,77.36022 -69.7835,117.69612 -97.9225,150.734 -131.6134,262.3008 -104.5329,346.1507 9.2147,28.5317 9.2182,28.5373 -22.9288,55.7455 -95.5787,80.8951 -161.8861,164.7401 -220.1945,278.483 -31.6506,61.7412 -43.9455,90.1775 -70.5974,163.2284 -11.4917,31.4979 -14.4427,31.6105 -46.3663,1.7497 -16.956,-15.8604 -51.5674,-36.5961 -103.0681,-61.7269 -42.6516,-20.8128 -100.233,-51.61 -127.95,-68.4408 -62.68098,-38.0622 -60.22413,-41.7341 -54.60613,81.6651 11.96181,262.7404 49.16078,333.259 202.12813,383.2194 53.9583,17.6233 53.9533,17.6302 53.5888,43.5994 -7.9215,564.3753 -31.8206,721.9301 -126.709,835.3475 -28.8748,34.5133 -35.1951,33.9778 -50.6998,-4.1707 -41.73811,-102.6941 -212.63318,-248.8715 -348.30731,-297.933 -22.25778,-8.0487 -56.70235,-20.7829 -76.53809,-28.2999 -52.45498,-19.8786 -63.88041,-11.6277 -42.33805,30.5989 5.84559,11.4583 15.37163,42.3215 21.15885,68.5832 57.73998,262.0169 234.93407,439.6591 384.257,385.2132 22.79922,-8.313 47.9109,-12.3198 84.7168,-13.5498 142.2009,-4.752 249.602,-110.6897 258.6263,-255.1066 3.2208,-51.5434 1.912,-52.5277 -34.9935,-26.3062 -54.5741,38.775 -82.2678,45.2032 -71.3704,16.5406 2.9696,-7.8105 11.6241,-36.4328 19.2464,-63.5987 15.8231,-56.394 24.0755,-68.2479 47.5667,-68.3797 197.7667,-1.1095 369.0926,-201.1639 376.5259,-439.6566 2.0073,-64.4015 12.6982,-62.5723 -100.8301,-17.2933 -47.4832,18.938 -103.3768,40.8958 -124.2065,48.7875 -53.7129,20.3503 -102.5784,50.2965 -135.7015,83.1705 -15.6985,15.5805 -23.286,23.0051 -30.9245,20.9555 -6.861,-1.841 -5.9186,-51.5037 -6.5918,-65.4094 2.7159,-128.9428 28.9636,-392.6696 55.2165,-485.3719 22.2376,-78.5234 20.9367,-77.1043 73.7711,-79.3457 48.1389,-2.0422 103.9964,-25.5923 210.1441,-88.562 59.2464,-35.1466 179.3083,-148.5125 218.6076,-206.4209 18.3769,-27.0787 -95.8211,-65.8504 -203.654,-69.1325 -41.0433,-1.2492 -54.5772,-2.325 -45.2271,-15.9098 -33.1001,34.4197 -68.1074,74.8509 -108.7443,132.1004 -55.1454,77.6893 -45.9676,79.9912 -7.609,51.3916 47.2154,-35.2031 196.969,-100.028 207.2754,-89.7217 11.7429,11.7429 -41.7621,56.2128 -74.9919,67.3014 -204.3565,68.1929 -278.7803,188.7512 -309.9975,401.5097 -24.0958,164.2235 -16.6874,154.3333 -21.5658,344.5434 -0.8217,32.0413 -0.2799,60.6877 0.1628,77.3722 1.191,37.7412 4.808,242.4882 32.0841,192.2811 48.6226,-89.4996 255.0964,-261.7798 305.2979,-261.7798 22.5098,0 13.4361,15.5673 -18.514,31.7587 -159.6647,80.9136 -302.4064,274.0046 -354.8584,451.7619 -22.5221,76.3263 -50.5744,131.5856 -91.2883,196.8994 -42.6181,68.3686 8.7301,42.386 116.3534,-58.8583 23.1832,-21.8091 44.656,-38.1011 47.7091,-36.2142 26.5983,16.4387 -131.4234,152.4219 -200.4394,172.4854 -16.7869,4.8801 -31.5047,14.1682 -36.6822,16.2964 -21.9672,9.0295 -46.44319,15.4197 -113.24053,-10.8032 -127.81927,-50.1787 -172.26792,-99.5484 -205.66813,-221.2932 -20.08899,-73.225 -11.20327,-71.3799 22.13542,6.6122 50.46722,118.0624 80.88813,151.3258 193.56282,193.0542 78.04722,28.9043 82.65112,27.8784 143.18852,-55.6234 123.1061,-169.8056 137.674,-383.4896 135.5184,-487.6099 -2.6352,-127.2822 5.7794,-444.3061 1.4648,-471.639 -2.2357,-14.1632 -1.6896,-52.1788 -46.6512,-101.9083 -72.8084,-80.5294 -134.1762,-170.3466 -122.3552,-201.1516 6.0615,-15.796 15.1183,-7.8571 32.6945,25.5738 61.2982,116.5928 151.5938,218.4063 161.4584,152.8523 24.6099,-163.5427 147.3807,-380.8984 262.0646,-503.9672 38.6387,-41.4637 52.3351,-62.4604 78.125,-93.1804 35.1885,-41.9154 147.7693,-200.2853 172.3633,-283.8542 10.0346,-34.0971 29.9011,-49.4212 29.7241,-22.9288 -0.1122,16.8029 -70.0783,173.4966 -95.6624,214.2537 -20.7119,32.9955 -18.7465,36.8434 13.6108,26.7334 72.7023,-22.7157 99.5341,-29.5117 165.5273,-29.5817 157.3654,-0.1666 318.174,89.5355 400.5534,235.0871 59.4844,105.0998 142.3969,301.31 153.1169,382.0597 4.6425,34.9701 21.0784,43.3677 25.8586,32.1249 10.5498,-24.8134 26.0505,-71.8622 46.2239,-119.5272 20.8248,-49.204 66.8835,-157.9944 137.2884,-286.5601 32.8964,-60.0717 64.5095,-125.0811 73.466,-142.7612 16.0568,-31.6958 16.3357,-33.6676 19.5719,-140.2995 4.2842,-141.1601 30.2226,-274.4553 47.8516,-245.931 5.3008,8.5769 4.261,16.7596 -11.6374,91.9393 -10.8985,51.5361 -20.5765,237.2414 -13.3463,256.0832 2.6217,6.8321 14.0008,3.1399 49.4792,-26.6927 177.7517,-149.4652 403.3652,-121.972 564.921,53.4668 12.9802,14.0957 37.8861,42.402 57.8817,60.7503 65.9974,60.5603 157.5071,195.2092 176.2695,259.3587 19.5658,66.8968 45.5073,-39.2206 50.5168,-175.7609 1.6491,-44.9474 1.1605,-50.0926 9.6028,-48.4212 23.5268,4.6577 6.3124,206.1217 -22.5219,263.5294 -12.8421,25.568 -13.2868,29.3281 -8.1584,68.7256 2.9836,22.9208 7.8706,61.0973 10.8643,84.8389 2.9937,23.7416 12.8791,79.5892 21.9726,124.1048 9.1844,44.9611 18.5399,112.1161 21.0368,151.0824 2.4721,38.5802 8.2742,85.9346 12.8988,105.2246 4.6245,19.2901 10.8869,78.7632 13.916,132.1818 8.6985,153.4006 32.1052,308.4433 49.9064,330.6274 7.5807,9.4473 21.4144,-3.5947 41.2394,-38.8794 28.4578,-50.6499 43.4021,-108.1026 57.3731,-220.5607 4.7651,-38.3559 22.0686,-34.4636 19.7957,4.4556 -6.9339,118.7318 -39.6317,213.422 -93.5059,270.7316 -14.7041,15.6417 -26.3265,33.1347 -26.3265,39.6322 0,27.3515 56.1098,195.6531 88.6638,265.9301 12.6179,27.2392 26.1095,66.6194 34.8917,85.551 54.3287,117.1152 142.0928,127.8543 270.6096,-15.2792 50.9612,-56.7572 75.2563,-74.1747 75.2563,-53.955 0,8.1891 -92.6839,112.5955 -131.6121,148.2544 -64.8127,59.3696 -123.2354,55.4259 -188.0086,11.8815 -21.1609,-14.2256 -26.9389,-16.7171 -47.5057,-17.9647 -18.6848,-1.1335 -39.3597,-2.3528 -91.5121,-19.4702 -66.357,-21.7796 -163.6191,-43.6198 -194.2138,-43.6198 -17.5077,0 -25.8589,-8.7074 -16.9271,-17.6392 13.5598,-13.5598 177.9805,17.7266 272.9492,51.9409 45.1456,16.2646 45.0724,15.3781 -7.1615,-114.7054 -68.5451,-170.7047 -91.084,-268.5372 -88.1958,-297.3022 1.0106,-10.0646 2.8256,-19.9433 -2.5634,-35.0749 -21.3495,-59.9464 -37.4744,-167.503 -42.2567,-281.8807 -10.1223,-242.0928 -51.6449,-290.242 -220.7845,-362.7726 -30.0175,-12.8721 -38.6623,-21.7285 -14.9943,-21.7285 32.4899,0 119.0202,43.2565 175.5574,87.7685 35.8632,28.2353 35.9507,13.0865 0.9969,-176.8188 -10.7498,-58.4042 -22.4855,-133.3552 -27.0182,-172.6481 -13.733,-119.0477 -132.6327,-302.5189 -221.1711,-373.881 -38.4421,-30.9844 -232.171,-31.2559 -352.2338,-0.6307 -33.8663,8.6385 -51.663,6.1337 -31.3925,-8.8298 41.2477,-30.4486 209.1337,-51.3847 306.722,-38.2487 43.8809,5.9067 43.568,-6.853 -14.6891,-48.8891 -180.5487,-130.2772 -344.4191,-124.1313 -543.5384,57.0678 -55.9217,50.8889 -228.4023,397.5063 -284.6476,568.7256 -4.0318,12.2733 -7.1466,21.791 -8.667,29.1138 -0.4297,3.9255 6.3464,6.7077 11.3118,6.1645 11.0002,-41.1611 76.5691,-206.0876 142.8427,-347.6562 105.703,-225.7951 269.1436,-375.6783 418.0908,-383.3822 87.4827,-4.5248 126.1652,10.1318 73.1811,27.7303 -35.8408,11.9044 -74.801,41.8565 -156.7586,120.4834 -73.0249,70.0572 -78.4603,82.2703 -31.8807,71.5332 57.1654,-13.1771 138.1783,-5.0481 274.6989,27.5676 66.3251,15.8455 159.0659,19.0227 211.8734,7.2632 76.0668,-16.939 124.5717,74.8159 203.8777,385.6811 22.237,87.1646 25.4947,82.4679 -43.4366,62.6221 -43.8409,-12.6221 -181.9781,-11.5914 -278.0559,2.0548 -41.4624,5.889 -77.2013,10.7365 -79.4271,10.7829 -13.4338,0.2802 1.1067,12.9677 35.0749,30.599 41.5648,21.5743 80.8658,58.3146 202.535,189.3514 77.6788,83.6595 120.4278,111.7256 199.6867,131.1238 29.4397,7.2053 31.4862,12.7361 36.0107,97.1477 13.4824,251.5363 48.5771,436.7961 107.544,567.7693 26.879,59.7017 20.5927,67.0145 -33.1014,38.4522 -76.2595,-40.5658 -249.3741,-12.6183 -351.5422,56.7627 -40.4006,27.4356 -44.6921,19.7606 33.1218,59.143 36.3544,18.3993 91.5808,51.855 122.7417,74.3409 117.0362,84.454 245.4744,123.4716 336.2426,102.1728 48.9072,-11.4761 61.7805,-10.7182 87.3414,5.0252 103.0977,63.4995 319.6506,-131.295 388.5904,-349.528 20.23,-64.0395 18.429,-68.1323 -19.5312,-44.1691 -12.058,7.6119 -58.7485,28.5061 -103.7598,46.4274 -125.1564,49.8311 -183.4626,87.6155 -235.616,152.6693 -13.3547,16.658 -29.1395,36.2531 -35.0749,43.5588 -21.8213,26.8592 -107.8593,-116.3894 -159.0373,-264.8112 -26.6682,-77.3406 -27.4326,-68.6324 8.016,-91.3086 142.7105,-91.2908 202.6774,-317.3095 137.4105,-517.924 -24.8916,-76.5105 -27.0263,-77.9845 -46.9361,-32.5521 -29.3911,67.0678 -148.1062,219.4785 -168.7825,216.6951 -9.3749,-1.262 -11.3501,-16.2976 -24.1292,-184.4075 -4.7375,-62.3218 -11.0678,-131.5305 -14.0788,-153.7883 -11.9567,-88.3854 -22.9046,-155.9294 -32.3487,-199.6459 -8.8114,-40.788 -9.0167,-47.0638 -1.892,-56.661 60.7109,-81.7795 74.1865,-122.3678 91.4103,-275.1872 13.6023,-120.6871 7.8282,-200.1286 -24.4141,-335.7544 -21.708,-91.3138 -26.0985,-97.6652 -45.6136,-65.8773 -8.0787,13.1591 -21.2962,33.6411 -29.3783,45.5119 -33.7004,49.4985 -106.7031,184.4229 -119.6085,221.0694 -12.9739,36.8405 -15.2639,36.1436 -48.055,-14.2009 -139.8271,-214.6787 -399.8649,-317.2275 -589.8234,-232.605 -36.6213,16.314 -43.1447,13.1642 -36.0515,-17.4357 28.0457,-120.9882 -22.4089,-272.8044 -123.6165,-371.98892 -37.8477,-37.09121 -39.1736,-36.71637 -44.4946,13.08187 -2.5813,24.15843 -20.2418,85.68635 -49.9064,173.86885 -86.13,256.0341 -91.3621,340.5805 -25.7365,415.3239 23.0541,26.2572 22.8892,26.8817 -26.4283,109.0698 -35.5807,59.2957 -89.7625,170.7004 -138.0818,283.8745 -9.9098,23.2111 -19.978,14.1805 -25.7162,-23.0509 -43.6543,-283.2467 -307.0315,-560.1912 -538.798,-566.5691 -44.4857,-1.2242 -44.4678,-1.2315 -43.2943,-25.5127 7.1546,-148.0314 -6.8905,-305.85779 -34.5459,-388.26493 -6.4491,-19.2172 -11.1558,-29.11637 -16.927,-28.9917 z m -240.4379,646.17923 c 11.8328,-12.3046 23.6609,-24.585 34.8104,-34.668 -1.773,1.6001 -3.7721,2.9207 -5.5135,4.5573 -14.8925,13.9967 -24.754,23.5104 -29.2969,30.1107 z m 267.6595,-150.5331 c -24.847,0.9373 -65.7866,10.1169 -90.7999,21.6472 -44.9809,20.7345 -89.9576,47.4088 -140.5233,92.8548 98.4538,-88.3006 239.7965,-126.7001 359.4767,-96.4356 57.9722,14.6599 57.807,14.4549 45.634,55.6844 -42.0414,142.3928 23.0439,325.6259 171.0205,481.486 39.0099,41.0882 74.0974,68.3713 75.4801,58.6955 0.3421,-2.3936 0.2947,-28.6319 -0.1017,-58.3089 -0.9314,-69.6939 26.5416,-272.0077 35.4411,-260.9863 52.631,65.1792 127.21,310.7257 118.4692,381.9376 0.2533,0 -5.1709,12.412 -3.3976,13.5092 1.4871,0.9201 3.3196,1.9423 5.5949,2.482 2.0817,0.4937 5.0265,0.7146 6.7952,-0.6713 5.9975,-4.6991 3.637,-23.5565 2.0549,-49.3775 -12.3675,-201.8493 -262.5902,-659.9148 -257.548,-471.4762 0.6572,24.5585 1.8103,87.1439 2.5431,139.0788 0.7329,51.9348 3.2312,101.0917 5.5745,109.2529 3.6403,12.6783 2.6934,14.8519 -6.5714,14.8519 -17.5118,0 -25.3201,-11.6087 -22.6034,-164.5711 2.8162,-158.568 5.3197,-170.6994 -35.2376,-201.1923 -26.6506,-20.0372 -49.7067,-30.1765 -80.6885,-42.7653 -37.1394,-15.0908 -125.3057,-28.1593 -190.6128,-25.6958 z m 865.4786,1076.0295 c -1.4281,-0.055 -2.8512,-0.043 -4.2522,0.02 -48.5658,2.177 -79.846,73.5783 -30.6599,114.9292 26.2512,22.0694 49.0245,20.23 75.358,-6.1035 31.8678,-31.8679 27.9962,-73.6129 -9.0942,-98.0631 -10.7398,-7.0797 -21.3554,-10.4013 -31.3517,-10.7829 z m -438.8225,33.8135 c -11.8832,0.2411 -23.8537,4.4288 -34.2203,13.6922 -32.8127,29.3207 -26.1841,79.032 12.797,95.9879 37.6095,16.3594 68.4187,2.7344 79.8136,-35.2986 12.0636,-40.2647 -22.7405,-75.105 -58.3903,-74.3815 z m 599.1211,141.1336 c -11.3142,0.2259 -23.3444,1.8875 -35.8276,5.1473 -85.9189,22.4366 -98.5203,98.8814 -20.223,122.64 66.0829,20.0522 140.6047,-12.0367 140.6047,-60.5469 0,-42.0258 -35.5259,-68.2194 -84.5541,-67.2404 z m -749.8576,40.5477 c -46.8596,0.3987 -99.06,22.7492 -99.06,60.7096 0,13.897 16.3215,25.6148 53.9551,38.7573 50.0776,17.4884 121.5791,-17.5188 117.6351,-57.5968 -2.8745,-29.2093 -36.0838,-42.1802 -72.5302,-41.8701 z" /></g></svg>
