<?xml version="1.0" encoding="UTF-8" standalone="no"?>
<!-- Created with Inkscape (http://www.inkscape.org/) -->

<svg
   width="5in"
   height="5in"
   viewBox="0 0 5000 5000"
   version="1.1"
   id="svg1"
   xml:space="preserve"
   inkscape:version="1.4.2 (ebf0e940, 2025-05-08)"
   sodipodi:docname="MazhaType2.svg"
   xmlns:inkscape="http://www.inkscape.org/namespaces/inkscape"
   xmlns:sodipodi="http://sodipodi.sourceforge.net/DTD/sodipodi-0.dtd"
   xmlns:xlink="http://www.w3.org/1999/xlink"
   xmlns="http://www.w3.org/2000/svg"
   xmlns:svg="http://www.w3.org/2000/svg"><sodipodi:namedview
     id="namedview1"
     pagecolor="#ffffff"
     bordercolor="#000000"
     borderopacity="0.25"
     inkscape:showpageshadow="2"
     inkscape:pageopacity="0.0"
     inkscape:pagecheckerboard="false"
     inkscape:deskcolor="#d1d1d1"
     inkscape:document-units="in"
     inkscape:zoom="1.4142136"
     inkscape:cx="195.16147"
     inkscape:cy="222.73863"
     inkscape:window-width="1920"
     inkscape:window-height="931"
     inkscape:window-x="0"
     inkscape:window-y="31"
     inkscape:window-maximized="0"
     inkscape:current-layer="layer4" /><defs
     id="defs1" /><g
     inkscape:groupmode="layer"
     id="layer3"
     inkscape:label="BG"
     style="display:inline;opacity:1"><circle
       style="opacity:1;fill:#47301f;stroke:none;stroke-width:10.4546;stroke-dasharray:none"
       id="path1"
       cx="2500"
       cy="2500"
       r="2300" /><circle
       style="fill:#47301f;stroke:#e0c9b8;stroke-width:51.8921;stroke-dasharray:none;stroke-opacity:1"
       id="path2"
       cx="2500"
       cy="-2500"
       r="2174.054"
       transform="rotate(90)" /><path
       id="path2-7"
       style="display:inline;opacity:1;fill:none;stroke:none;stroke-width:51.8921"
       inkscape:label="pathTEXT"
       d="M 2500,325.94604 A 2174.054,2174.054 0 0 0 325.94604,2500 2174.054,2174.054 0 0 0 2500,4674.054 2174.054,2174.054 0 0 0 4674.054,2500 2174.054,2174.054 0 0 0 2500,325.94604 Z" /></g><g
     inkscape:groupmode="layer"
     id="layer4"
     inkscape:label="FG"
     style="display:inline;opacity:1"
     transform="matrix(0.78982366,0,0,0.78982366,555.37513,185.26812)"><g
       id="g7"
       transform="matrix(1.1495598,0,0,1.1495598,-368.23121,-12.016436)"
       style="fill:#e0c9b8"><path
         style="display:inline;fill:#e0c9b8;stroke-width:5.50691403;stroke:none;stroke-dasharray:none"
         d="m 1714.3589,433.07781 c -7.3515,0.1588 -16.2409,14.79089 -31.3274,45.02436 -13.6855,27.42596 -48.9811,86.94817 -78.4324,132.28332 -110.059,169.4159 -147.9256,294.81024 -117.4887,389.05244 10.3568,32.06787 10.3607,32.07417 -25.7705,62.65457 -107.4247,90.9212 -181.9502,185.1579 -247.4854,312.998 -35.5733,69.3934 -49.392,101.3541 -79.3472,183.4589 -12.916,35.4017 -16.2327,35.5283 -52.1129,1.9665 -19.0575,-17.8261 -57.9587,-41.1318 -115.84232,-69.3772 -47.93782,-23.3924 -112.65583,-58.0066 -143.80806,-76.9234 -70.4496,-42.7796 -67.68828,-46.9065 -61.37399,91.7867 13.44435,295.3043 55.25384,374.5629 227.17979,430.7154 60.64588,19.8075 60.64028,19.8153 60.23058,49.003 -8.9033,634.3237 -35.7644,811.4058 -142.41326,938.8801 -32.45353,38.7909 -39.55716,38.189 -56.98351,-4.6876 -46.91104,-115.4219 -238.98683,-279.7165 -391.47634,-334.8587 -25.01641,-9.0462 -63.73001,-23.3587 -86.02419,-31.8073 -58.95622,-22.3423 -71.79771,-13.0689 -47.58541,34.3913 6.57009,12.8784 17.27679,47.5668 23.78128,77.0834 64.89624,294.4911 264.05167,494.1502 431.88161,432.9563 25.62495,-9.3433 53.84896,-13.8468 95.21657,-15.2292 159.82515,-5.341 280.53755,-124.4085 290.68035,-286.7244 3.62,-57.9316 2.149,-59.038 -39.3306,-29.5666 -61.338,43.5809 -92.4641,50.8057 -80.216,18.5907 3.3376,-8.7785 13.0648,-40.9483 21.6318,-71.4811 17.7842,-63.3834 27.0594,-76.7065 53.462,-76.8547 222.2779,-1.247 414.8378,-226.096 423.1924,-494.1474 2.2561,-72.3833 14.272,-70.3274 -113.3269,-19.4366 -53.3683,21.2852 -116.1893,45.9644 -139.6006,54.8342 -60.37,22.8725 -115.292,56.5302 -152.5203,93.4786 -17.6442,17.5115 -33.8608,31.8304 -36.0378,31.8304 -27.1736,0 16.273,-487.2824 55.9317,-627.3225 24.9937,-88.2556 23.5317,-86.6606 82.9143,-89.1798 54.1053,-2.2953 116.8857,-28.7642 236.1893,-99.5383 66.5894,-39.5026 201.5316,-166.9191 245.7017,-232.0047 20.6545,-30.4348 -107.6972,-74.0118 -228.8948,-77.7006 -68.5426,-2.0863 -69.094,-3.614 -17.9046,-51.7243 110.8843,-104.2145 274.3056,-149.84727 411.9419,-115.042 65.1572,16.4769 64.9716,16.2465 51.2899,62.5859 -47.252,160.0409 25.8999,365.9838 192.2167,541.1612 43.8448,46.1806 83.281,76.8451 84.835,65.9701 0.3845,-2.6902 0.3313,-32.1805 -0.1142,-65.5356 -1.0469,-78.3318 29.8312,-305.7202 39.8336,-293.3328 62.3456,77.21 152.0961,379.6077 130.7283,440.4565 -3.4353,9.7826 3.3489,8.3816 -213.5969,43.881 -399.7683,65.4152 -362.9716,46.8752 -330.9714,166.812 82.2199,308.1592 86.931,536.1627 14.4748,700.2213 -116.7374,264.3221 -73.5286,445.0474 131.5287,550.262 109.7406,56.3077 160.3509,64.6741 500.3212,82.7314 83.4187,4.4306 196.5596,3.4799 255.9232,-2.1495 366.5024,-34.7553 471.8321,-192.1251 359.9432,-537.8227 -72.0364,-222.5676 -70.2495,-214.2357 -77.129,-359.623 -12.0094,-253.7987 1.5571,-402.2727 47.2424,-517.0598 24.747,-62.1785 24.9912,-61.4118 -23.7355,-76.4431 -95.6758,-29.5138 -232.2262,-44.1469 -427.2168,-45.8018 -87.5083,-0.7427 -160.6202,-2.8633 -162.4673,-4.7104 -7.266,-7.2661 75.601,-208.4663 160.8895,-390.6532 118.8037,-253.78 302.5011,-422.23971 469.9087,-430.89845 98.3253,-5.08559 141.8021,11.38753 82.2512,31.16719 -40.2829,13.37986 -84.0718,47.04416 -176.1872,135.41606 -82.0756,78.7401 -88.1847,92.4668 -35.832,80.399 64.2505,-14.8103 155.304,-5.6737 308.7449,30.9844 74.5455,17.8093 178.7805,21.3803 238.1329,8.1633 85.4945,-19.0384 140.0111,84.0885 229.1462,433.4822 24.9931,97.9678 28.6545,92.6889 -48.8201,70.3835 -49.2745,-14.1865 -204.5324,-13.028 -312.518,2.3094 -46.6012,6.619 -86.7696,12.0672 -89.2712,12.1194 -15.0988,0.3149 1.2439,14.5749 39.422,34.3914 46.7163,24.2483 90.8883,65.5421 227.6371,212.8195 87.3063,94.0283 135.3535,125.5729 224.4358,147.3753 33.0885,8.0983 35.3885,14.3145 40.4739,109.1881 15.1534,282.7116 54.5977,490.9324 120.8729,638.1383 30.2104,67.1012 23.145,75.3203 -37.204,43.218 -85.7111,-45.5935 -280.2814,-14.1822 -395.1122,63.7978 -45.4078,30.836 -50.2312,22.2098 37.2269,66.4731 40.8602,20.6798 102.9313,58.282 137.9543,83.5547 131.5416,94.9213 275.8984,138.7746 377.9163,114.8361 54.9687,-12.8984 69.4376,-12.0466 98.1665,5.648 22.0804,13.5997 48.7781,16.6542 78.0894,10.9989 6.7689,-1.3061 13.6959,-3.0921 20.7171,-5.3051 122.1313,-38.4938 278.6359,-210.7938 337.9455,-398.5421 22.7373,-71.9766 20.7131,-76.5766 -21.9518,-49.6434 -13.5525,8.5553 -66.0298,32.0392 -116.6198,52.1816 -140.6681,56.0071 -206.2008,98.4745 -264.818,171.591 -15.0099,18.7226 -32.7511,40.7464 -39.4222,48.9575 -24.5258,30.1882 -121.2273,-130.8146 -178.7483,-297.6318 -29.9734,-86.9261 -30.8326,-77.1386 9.0096,-102.6253 160.398,-102.6054 227.7971,-356.6367 154.441,-582.1153 -27.9766,-85.9931 -30.3759,-87.6498 -52.7533,-36.5866 -33.0338,75.3802 -166.4624,246.6806 -189.7013,243.5523 -10.5369,-1.4184 -12.7569,-18.3175 -27.1198,-207.2629 -5.3247,-70.0459 -12.4396,-147.8324 -15.8237,-172.8488 -13.4386,-99.3398 -25.7433,-175.2552 -36.358,-224.3899 -9.9034,-45.8432 -10.1342,-52.8968 -2.1265,-63.6835 68.2354,-91.9152 83.3811,-137.5341 102.7397,-309.2938 15.2881,-135.645 8.7984,-224.9324 -27.44,-377.36763 -24.3985,-102.63115 -29.3332,-109.76976 -51.2669,-74.04209 -9.08,14.79001 -23.9357,37.81051 -33.0195,51.15259 -37.8772,55.63335 -119.9278,207.28013 -134.4327,248.46873 -14.5819,41.4064 -17.1557,40.6231 -54.0109,-15.961 -157.1571,-241.28588 -449.4239,-356.54457 -662.9258,-261.43399 -41.1601,18.33598 -48.4921,14.7958 -40.5197,-19.59665 31.5216,-135.98345 -25.1863,-306.61565 -138.9374,-418.09305 -42.5386,-41.68828 -44.0288,-41.26698 -50.0093,14.70323 -2.9013,27.15261 -22.7506,96.30627 -56.0918,195.41803 -96.8049,287.76689 -102.6855,382.79193 -28.9262,466.79903 25.9113,29.5114 25.7261,30.2134 -29.7039,122.5878 -39.9905,66.6448 -100.8876,191.8569 -155.1956,319.0577 -11.1379,26.088 -22.454,15.9381 -28.9034,-25.9078 -49.0648,-318.3521 -345.0848,-629.62099 -605.5764,-636.78931 -49.9992,-1.376 -49.9791,-1.38415 -48.6602,-28.67477 8.0414,-166.3783 -7.7444,-343.76565 -38.8274,-436.38629 -7.2485,-21.59897 -12.5385,-32.72503 -19.0249,-32.58492 z"
         id="path16" /><path
         id="path36"
         style="display:inline;fill:#49532d;stroke-width:5.50691403;stroke:#49532d;stroke-dasharray:none"
         d="m 1714.3589,433.07781 c -7.3515,0.1588 -16.2409,14.79089 -31.3274,45.02436 -13.6855,27.42596 -48.9811,86.94821 -78.4324,132.28332 -110.059,169.4159 -147.9256,294.81024 -117.4887,389.05244 10.3568,32.06787 10.3607,32.07417 -25.7705,62.65457 -107.4247,90.9212 -181.9502,185.1579 -247.4854,312.998 -35.5733,69.3934 -49.392,101.3541 -79.3472,183.4589 -12.916,35.4017 -16.2327,35.5283 -52.1129,1.9665 -19.0575,-17.8261 -57.9587,-41.1318 -115.84232,-69.3772 -47.93782,-23.3924 -112.65583,-58.0066 -143.80806,-76.9234 -70.44963,-42.7796 -67.68828,-46.9065 -61.37399,91.7867 13.44435,295.3043 55.25374,374.5629 227.17979,430.7154 60.64588,19.8075 60.64028,19.8153 60.23058,49.003 -8.9033,634.3237 -35.7644,811.4058 -142.41326,938.8801 -32.45353,38.7909 -39.55716,38.189 -56.98351,-4.6876 -46.91111,-115.4219 -238.98683,-279.7165 -391.47634,-334.8587 -25.01641,-9.0462 -63.73001,-23.3587 -86.02419,-31.8073 -58.95622,-22.3423 -71.79771,-13.0689 -47.58541,34.3913 6.57009,12.8784 17.27679,47.5668 23.78128,77.0834 64.89624,294.4911 264.05167,494.1502 431.88161,432.9563 25.62495,-9.3433 53.84896,-13.8468 95.21657,-15.2292 159.82515,-5.341 280.53755,-124.4085 290.68035,-286.7244 3.62,-57.9316 2.149,-59.038 -39.3306,-29.5666 -61.338,43.5809 -92.4641,50.8057 -80.216,18.5907 3.3376,-8.7785 13.0648,-40.9483 21.6318,-71.4811 17.7842,-63.3834 27.0594,-76.7065 53.462,-76.8547 222.2779,-1.247 414.8378,-226.096 423.1924,-494.1474 2.2561,-72.3833 14.272,-70.3274 -113.3269,-19.4366 -53.3683,21.2852 -116.1893,45.9644 -139.6006,54.8342 -60.37,22.8725 -115.292,56.5302 -152.5203,93.4786 -17.6442,17.5115 -26.1721,25.8564 -34.7573,23.5527 -7.7113,-2.0691 -6.6521,-57.887 -7.4088,-73.5162 3.0525,-144.9239 32.5534,-441.3368 62.06,-545.5286 24.9937,-88.2556 23.5317,-86.6606 82.9143,-89.1798 54.1053,-2.2953 116.8857,-28.7642 236.1893,-99.5383 66.5894,-39.5026 201.5316,-166.9191 245.7017,-232.0047 20.6545,-30.4348 -107.6972,-74.0118 -228.8948,-77.7006 -46.1301,-1.4041 -61.3414,-2.6132 -50.8325,-17.8818 -37.2025,38.6857 -76.5486,84.128 -122.222,148.473 -61.9801,87.318 -51.6648,89.9052 -8.5521,57.761 53.0673,-39.5662 221.3813,-112.4254 232.965,-100.8418 13.1983,13.1983 -46.9381,63.1798 -84.2863,75.6427 -229.6844,76.6448 -313.3322,212.145 -348.4185,451.2726 -27.0822,184.5773 -18.7556,173.4613 -24.2387,387.246 -0.9235,36.0125 -0.3145,68.2092 0.183,86.9616 1.3386,42.4188 5.4039,272.5421 36.0606,216.1124 54.6489,-100.5922 286.713,-294.2247 343.1364,-294.2247 25.2997,0 15.1014,17.4967 -20.8086,35.6948 -179.4534,90.942 -339.8865,307.9647 -398.8394,507.7531 -25.3135,85.7862 -56.84257,147.8943 -102.60252,221.3031 -47.90018,76.8421 9.8121,47.6392 130.77422,-66.1533 26.0565,-24.5121 50.1906,-42.8233 53.6221,-40.7025 29.8949,18.4761 -147.71195,171.313 -225.28177,193.8631 -18.86745,5.485 -35.40937,15.9242 -41.22857,18.3162 -24.6898,10.1486 -52.19934,17.3308 -127.2755,-12.1421 -143.66112,-56.3978 -193.61873,-111.8864 -231.15854,-248.7202 -22.57881,-82.3005 -12.5918,-80.2267 24.87888,7.4317 56.7221,132.695 90.91336,170.0811 217.5529,216.9812 87.72035,32.4868 92.89485,31.3337 160.93523,-62.5173 138.36377,-190.8512 154.73727,-431.0191 152.31447,-548.044 -2.9618,-143.0575 6.4957,-499.3732 1.6464,-530.0937 -2.5128,-15.9186 -1.8991,-58.6458 -52.4332,-114.5388 -81.83221,-90.5101 -150.8059,-191.4593 -137.51981,-226.0822 6.81276,-17.7538 16.99206,-8.8309 36.74664,28.7434 68.89547,131.0432 170.38227,245.4755 181.46947,171.7967 27.66,-183.812 165.647,-428.1067 294.5448,-566.4286 43.4276,-46.6027 58.8215,-70.2017 87.8078,-104.7292 39.5497,-47.1103 166.0837,-225.1085 193.7259,-319.03488 11.2782,-38.3231 33.607,-55.54646 33.4081,-25.77058 -0.1261,18.88546 -78.7638,194.99971 -107.5188,240.80814 -23.2789,37.08502 -21.0699,41.40972 15.2977,30.04677 81.7131,-25.53104 111.8704,-33.16938 186.0427,-33.24802 176.8692,-0.18727 357.6084,100.63247 450.1978,264.22367 66.8569,118.1258 160.0454,338.6542 172.0942,429.412 5.2178,39.3043 23.6908,48.7426 29.0634,36.1064 11.8574,-27.8888 29.2792,-80.7688 51.9529,-134.3413 23.4058,-55.3023 75.173,-177.5761 154.3039,-322.0763 36.9735,-67.5169 72.5047,-140.5835 82.5712,-160.4549 18.0469,-35.6241 18.3604,-37.8403 21.9977,-157.68814 4.8152,-158.65542 33.9684,-308.47116 53.7824,-276.41161 5.9577,9.63992 4.789,18.83681 -13.0798,103.33428 -12.2493,57.92346 -23.1267,266.64497 -15.0004,287.82197 2.9466,7.6789 15.736,3.5291 55.6116,-30.0009 199.7821,-167.98988 453.3581,-137.08922 634.937,60.0934 14.5889,15.8427 42.5817,47.6573 65.0555,68.2797 74.1771,68.0661 177.0285,219.4033 198.1163,291.5034 21.9907,75.188 51.1475,-44.0815 56.7778,-197.5445 1.8535,-50.5183 1.3044,-56.3011 10.793,-54.4226 26.4427,5.235 7.0947,231.6684 -25.3133,296.1911 -14.4338,28.7369 -14.9335,32.963 -9.1695,77.2435 3.3534,25.7616 8.8461,68.6696 12.2108,95.3538 3.3648,26.6841 14.4753,89.4534 24.6959,139.4862 10.3227,50.5336 20.8377,126.0118 23.6441,169.8075 2.7784,43.3618 9.2997,96.5853 14.4974,118.2661 5.1977,21.6809 12.2362,88.5251 15.6408,148.5644 9.7766,172.413 36.0843,346.6715 56.0917,371.6051 8.5203,10.6182 24.0686,-4.0402 46.3506,-43.698 31.9849,-56.9275 48.7814,-121.5009 64.4839,-247.8969 5.3557,-43.1098 24.8038,-38.735 22.2492,5.0078 -7.7933,133.4474 -44.5437,239.8734 -105.095,304.286 -16.5265,17.5803 -29.5893,37.2413 -29.5893,44.5441 0,30.7415 63.0639,219.9023 99.6527,298.8893 14.1818,30.6153 29.3455,74.8763 39.2161,96.1542 61.0623,131.6304 159.7038,143.7005 304.1488,-17.1729 57.2774,-63.7916 84.5836,-83.3679 84.5836,-60.6421 0,9.2041 -104.1711,126.5505 -147.924,166.6289 -72.8456,66.7279 -138.5092,62.2954 -211.3103,13.3541 -23.7836,-15.9887 -30.2777,-18.789 -53.3935,-20.1912 -21.0007,-1.274 -44.238,-2.6445 -102.8541,-21.8833 -74.5813,-24.479 -183.898,-49.026 -218.2846,-49.026 -19.6776,0 -29.0638,-9.7866 -19.025,-19.8254 15.2404,-15.2404 200.0393,19.9236 306.7784,58.3784 50.7409,18.2804 50.6586,17.2841 -8.0491,-128.9219 -77.0406,-191.8618 -102.373,-301.8196 -99.1268,-334.1497 1.1358,-11.312 3.1758,-22.4151 -2.8811,-39.4221 -23.9956,-67.3761 -42.1189,-188.2632 -47.494,-316.8169 -11.3768,-272.0976 -58.0457,-326.2144 -248.1484,-407.7345 -33.7379,-14.4673 -43.4541,-24.4215 -16.8526,-24.4215 36.5167,0 133.7714,48.6177 197.3158,98.6465 40.3081,31.7348 40.4065,14.7085 1.1205,-198.7336 -12.0821,-65.6427 -25.2724,-149.8832 -30.3669,-194.046 -15.435,-133.8024 -149.0711,-340.0129 -248.5829,-420.2196 -43.2066,-34.8246 -260.9462,-35.1298 -395.8895,-0.7089 -38.0636,9.7091 -58.066,6.8939 -35.2833,-9.9241 46.36,-34.2224 235.0537,-57.7534 344.737,-42.9893 49.3196,6.6388 48.9679,-7.7024 -16.5096,-54.9484 -202.9258,-146.4237 -387.1063,-139.51602 -610.9043,64.1408 -62.8526,57.1961 -256.7103,446.773 -319.9267,639.2132 -4.5315,13.7944 -8.0323,24.4917 -9.7412,32.7221 -0.483,4.4121 7.133,7.539 12.7138,6.9285 12.3635,-46.2626 86.0591,-231.63 160.5466,-390.7445 118.8037,-253.78 302.5011,-422.23971 469.9087,-430.89845 98.3253,-5.08559 141.8021,11.38753 82.2512,31.16719 -40.2829,13.37986 -84.0718,47.04416 -176.1872,135.41606 -82.0756,78.7401 -88.1847,92.4668 -35.832,80.399 64.2505,-14.8103 155.304,-5.6737 308.7449,30.9844 74.5455,17.8093 178.7805,21.3803 238.1329,8.1633 85.4945,-19.0384 140.0111,84.0885 229.1462,433.4822 24.9931,97.9678 28.6545,92.6889 -48.8201,70.3835 -49.2745,-14.1865 -204.5324,-13.028 -312.518,2.3094 -46.6012,6.619 -86.7696,12.0672 -89.2712,12.1194 -15.0988,0.3149 1.2439,14.5749 39.422,34.3914 46.7163,24.2483 90.8883,65.5421 227.6371,212.8195 87.3063,94.0283 135.3535,125.5729 224.4358,147.3753 33.0885,8.0983 35.3885,14.3145 40.4739,109.1881 15.1534,282.7116 54.5977,490.9324 120.8729,638.1383 30.2104,67.1012 23.145,75.3203 -37.204,43.218 -85.7111,-45.5935 -280.2814,-14.1822 -395.1122,63.7978 -45.4078,30.836 -50.2312,22.2098 37.2269,66.4731 40.8602,20.6798 102.9313,58.282 137.9543,83.5547 131.5416,94.9213 275.8984,138.7746 377.9163,114.8361 54.9687,-12.8984 69.4376,-12.0466 98.1665,5.648 115.8756,71.3697 359.2679,-147.5677 436.752,-392.8483 22.7373,-71.9766 20.7131,-76.5766 -21.9518,-49.6434 -13.5525,8.5553 -66.0298,32.0392 -116.6198,52.1816 -140.6681,56.0071 -206.2008,98.4745 -264.818,171.591 -15.0099,18.7226 -32.7511,40.7464 -39.4222,48.9575 -24.5258,30.1882 -121.2273,-130.8146 -178.7483,-297.6318 -29.9734,-86.9261 -30.8326,-77.1386 9.0096,-102.6253 160.398,-102.6054 227.7971,-356.6367 154.441,-582.1153 -27.9766,-85.9931 -30.3759,-87.6498 -52.7533,-36.5866 -33.0338,75.3802 -166.4624,246.6806 -189.7013,243.5523 -10.5369,-1.4184 -12.7569,-18.3175 -27.1198,-207.2629 -5.3247,-70.0459 -12.4396,-147.8324 -15.8237,-172.8488 -13.4386,-99.3398 -25.7433,-175.2552 -36.358,-224.3899 -9.9034,-45.8432 -10.1342,-52.8968 -2.1265,-63.6835 68.2354,-91.9152 83.3811,-137.5341 102.7397,-309.2938 15.2881,-135.645 8.7984,-224.9324 -27.44,-377.36763 -24.3985,-102.63115 -29.3332,-109.76976 -51.2669,-74.04209 -9.08,14.79001 -23.9357,37.81051 -33.0195,51.15259 -37.8772,55.63335 -119.9278,207.28013 -134.4327,248.46873 -14.5819,41.4064 -17.1557,40.6231 -54.0109,-15.961 -157.1571,-241.28588 -449.4239,-356.54457 -662.9258,-261.43399 -41.1601,18.33598 -48.4921,14.7958 -40.5197,-19.59665 31.5216,-135.98345 -25.1863,-306.61565 -138.9374,-418.09305 -42.5386,-41.68828 -44.0288,-41.26698 -50.0093,14.70323 -2.9013,27.15261 -22.7506,96.30627 -56.0918,195.41803 -96.8049,287.76689 -102.6855,382.79193 -28.9262,466.79903 25.9113,29.5114 25.7261,30.2134 -29.7039,122.5878 -39.9905,66.6448 -100.8876,191.8569 -155.1956,319.0577 -11.1379,26.088 -22.454,15.9381 -28.9034,-25.9078 -49.0648,-318.3521 -345.0848,-629.62099 -605.5764,-636.78931 -49.9992,-1.376 -49.9791,-1.38415 -48.6602,-28.67477 8.0414,-166.3783 -7.7444,-343.76565 -38.8274,-436.38629 -7.2485,-21.59897 -12.5385,-32.72503 -19.0249,-32.58492 z m -270.2377,726.26629 c 13.2993,-13.8295 26.5934,-27.6319 39.1248,-38.9647 -1.9928,1.7985 -4.2396,3.2827 -6.1969,5.1222 -16.7383,15.7314 -27.8219,26.4243 -32.9279,33.8425 z m 300.8331,-169.19003 c -27.9265,1.05346 -73.9402,11.37073 -102.0537,24.33013 -50.5557,23.3044 -101.1068,53.2847 -157.9396,104.3632 110.6561,-99.2445 269.5167,-142.40324 404.03,-108.3878 65.1572,16.4769 64.9716,16.2465 51.2899,62.5859 -47.252,160.0409 25.8999,365.9838 192.2167,541.1612 43.8448,46.1806 83.281,76.8451 84.835,65.9701 0.3845,-2.6902 0.3313,-32.1805 -0.1142,-65.5356 -1.0469,-78.3318 29.8312,-305.7202 39.8336,-293.3328 59.1541,73.2575 142.9763,349.2368 133.1522,429.2747 0.2847,0 -5.8118,13.9504 -3.8186,15.1835 1.6713,1.0342 3.7309,2.183 6.2882,2.7897 2.3398,0.5548 5.6496,0.8031 7.6375,-0.7545 6.7408,-5.2816 4.0877,-26.4762 2.3096,-55.4974 -13.9004,-226.8664 -295.1356,-741.70431 -289.4684,-529.9107 0.7386,27.6023 2.0346,97.9445 2.8582,156.3161 0.8238,58.3716 3.6317,113.621 6.2655,122.7937 4.0914,14.2497 3.0272,16.6926 -7.3859,16.6926 -19.6822,0 -28.4582,-13.0474 -25.4048,-184.9679 3.1652,-178.2208 5.9789,-191.8558 -39.605,-226.128 -29.9536,-22.5206 -55.8673,-33.9166 -90.689,-48.0656 -41.7424,-16.9611 -140.836,-31.64937 -214.2372,-28.88053 z m 972.7455,1209.39213 c -1.6051,-0.062 -3.2046,-0.048 -4.7791,0.023 -54.5851,2.4469 -89.7421,82.6976 -34.4599,129.1734 29.5047,24.8048 55.1005,22.7373 84.6978,-6.8599 35.8175,-35.8175 31.466,-82.7364 -10.2213,-110.2169 -12.0709,-7.9572 -24.0022,-11.6905 -35.2375,-12.1194 z m -493.2099,38.0043 c -13.356,0.2709 -26.8101,4.9776 -38.4615,15.3892 -36.8795,32.9546 -29.4294,88.8272 14.383,107.8846 42.2708,18.387 76.8985,3.0733 89.7057,-39.6735 13.5587,-45.2551 -25.559,-84.4135 -65.6272,-83.6003 z m 673.3759,158.6256 c -12.7165,0.2539 -26.2377,2.1214 -40.2681,5.7852 -96.5676,25.2174 -110.7309,111.1367 -22.7294,137.84 74.2732,22.5374 158.0311,-13.5285 158.0311,-68.0511 0,-47.2344 -39.9289,-76.6744 -95.0336,-75.5741 z m -842.7946,45.5731 c -52.6674,0.4482 -111.3375,25.5688 -111.3375,68.234 0,15.6193 18.3444,28.7895 60.6423,43.5608 56.2842,19.6559 136.6475,-19.69 132.2148,-64.7353 -3.2308,-32.8295 -40.5561,-47.408 -81.5196,-47.0595 z" /></g><text
       xml:space="preserve"
       style="font-size:844.07px;line-height:0.9;font-family:Manjari;-inkscape-font-specification:Manjari;text-align:center;letter-spacing:79.1316px;writing-mode:lr-tb;direction:ltr;text-anchor:middle;fill:#e0c9b8;stroke:none;stroke-width:63.3053"
       x="2456.519"
       y="3825.6052"
       id="text3"><tspan
         sodipodi:role="line"
         id="tspan3"
         style="font-size:844.07px;line-height:0.9;letter-spacing:79.1316px;fill:#e0c9b8;stroke-width:63.3053"
         x="2456.519"
         y="3825.6052" /><tspan
         sodipodi:role="line"
         style="font-weight:bold;font-size:879.24px;line-height:0.9;letter-spacing:79.1316px;fill:#e0c9b8;stroke-width:63.3053"
         x="2496.085"
         y="4585.2686"
         id="tspan7">MAZHA</tspan></text><text
       xml:space="preserve"
       style="font-style:normal;font-variant:normal;font-weight:normal;font-stretch:normal;font-size:192.786px;line-height:1;font-family:amarna;-inkscape-font-specification:amarna;text-align:center;letter-spacing:2.63772px;writing-mode:lr-tb;direction:ltr;text-anchor:middle;fill:#a98c70;stroke-width:63.3053"
       id="text5"
       transform="matrix(1.185785,0,0,1.185785,-499.93425,-33.28937)"><textPath
         xlink:href="#path2-7"
         startOffset="50%"
         id="textPath5"><tspan
           id="tspan5"
           style="font-size:192.786px;fill:#a98c70;stroke-width:63.3053">THE PLANT BOUTIQUE</tspan></textPath></text><text
       xml:space="preserve"
       style="font-style:normal;font-variant:normal;font-weight:normal;font-stretch:normal;font-size:562.714px;line-height:0.9;font-family:Manjari;-inkscape-font-specification:Manjari;text-align:center;letter-spacing:85.0552px;writing-mode:lr-tb;direction:ltr;text-anchor:middle;fill:#e0c9b8;stroke-width:68.0442"
       id="text8"
       x="2462.1001"
       y="5053.6997">മഴ</text></g></svg>
