<?xml version="1.0" encoding="UTF-8" standalone="no"?>
<!-- Created with Inkscape (http://www.inkscape.org/) -->

<svg
   width="5in"
   height="5in"
   viewBox="0 0 5000 5000"
   version="1.1"
   id="svg1"
   xml:space="preserve"
   inkscape:version="1.4.2 (ebf0e940, 2025-05-08)"
   sodipodi:docname="MazhaOutlineType1.svg"
   xmlns:inkscape="http://www.inkscape.org/namespaces/inkscape"
   xmlns:sodipodi="http://sodipodi.sourceforge.net/DTD/sodipodi-0.dtd"
   xmlns="http://www.w3.org/2000/svg"
   xmlns:svg="http://www.w3.org/2000/svg"><sodipodi:namedview
     id="namedview1"
     pagecolor="#ffffff"
     bordercolor="#000000"
     borderopacity="0.25"
     inkscape:showpageshadow="2"
     inkscape:pageopacity="0.0"
     inkscape:pagecheckerboard="false"
     inkscape:deskcolor="#d1d1d1"
     inkscape:document-units="in"
     inkscape:zoom="1.4142136"
     inkscape:cx="230.5168"
     inkscape:cy="196.92923"
     inkscape:window-width="1920"
     inkscape:window-height="1052"
     inkscape:window-x="0"
     inkscape:window-y="28"
     inkscape:window-maximized="0"
     inkscape:current-layer="layer7" /><defs
     id="defs1" /><g
     inkscape:groupmode="layer"
     id="layer3"
     inkscape:label="BG"
     style="display:inline;opacity:0.9"><circle
       style="opacity:1;fill:none;stroke:#1f2e1f;stroke-width:52;stroke-dasharray:none;stroke-opacity:1"
       id="path1"
       cx="2500"
       cy="2500"
       r="2300" /><circle
       style="fill:none;stroke:#1f2e1f;stroke-width:51.8921;stroke-dasharray:none;stroke-opacity:1"
       id="path2"
       cx="2500"
       cy="2500"
       r="2174.054" /></g><g
     inkscape:groupmode="layer"
     id="layer7"
     inkscape:label="FG2"
     transform="translate(-429.4203,329.40559)"
     style="display:inline"><path
       id="path16-0"
       style="display:inline;fill:#1f2e1f;stroke:#1f2e1f;stroke-opacity:1;stroke-width:50;stroke-dasharray:none;fill-opacity:1"
       d="m 2226.2343,552.08448 c -6.5407,0.14129 -14.4499,13.15986 -27.8728,40.05941 -12.1768,24.40216 -43.5802,77.36083 -69.7835,117.69613 -97.9225,150.734 -131.6134,262.30083 -104.5329,346.15068 9.2147,28.5317 9.2182,28.5373 -22.9288,55.7455 -95.5787,80.8951 -161.8861,164.7401 -220.1945,278.483 -31.6506,61.7412 -43.9455,90.1775 -70.5974,163.2284 -5.0276,13.7803 -8.4265,21.5536 -13.326,23.4375 -0.175,0.067 -0.35,0.1308 -0.5289,0.1831 -0.179,0.052 -0.3661,0.085 -0.5494,0.1221 -0.1832,0.037 -0.3615,0.079 -0.5493,0.1017 -6.1974,0.7346 -14.9521,-6.6978 -31.4127,-22.0947 -16.956,-15.8604 -51.5674,-36.5961 -103.0681,-61.7269 -42.6516,-20.8128 -100.233,-51.61 -127.95,-68.4408 -62.6809,-38.0622 -60.2241,-41.7341 -54.6061,81.6651 11.9623,262.7321 49.1628,333.2596 202.1281,383.2194 53.9583,17.6233 53.9533,17.6302 53.5888,43.5994 -7.9215,564.3753 -31.8206,721.9301 -126.709,835.3475 -12.6327,15.0996 -20.9518,23.4957 -27.6082,24.9634 -0.4754,0.1048 -0.9443,0.1693 -1.4038,0.2034 -7.8114,0.58 -13.4509,-9.0711 -21.6878,-29.3375 -41.738,-102.6941 -212.6332,-248.8715 -348.3073,-297.933 -22.2578,-8.0487 -56.7023,-20.7829 -76.5381,-28.2999 -52.45497,-19.8786 -63.88041,-11.6277 -42.33805,30.5989 5.84559,11.4583 15.37165,42.3215 21.15885,68.5832 57.74,262.0169 234.9341,439.6591 384.257,385.2132 22.7992,-8.313 47.9109,-12.3198 84.7168,-13.5498 142.2009,-4.752 249.602,-110.6897 258.6263,-255.1066 3.2208,-51.5434 1.912,-52.5277 -34.9935,-26.3062 -54.5741,38.775 -82.2678,45.2032 -71.3704,16.5406 2.9696,-7.8105 11.6241,-36.4328 19.2464,-63.5987 15.8231,-56.394 24.0755,-68.2479 47.5667,-68.3797 197.7667,-1.1095 369.0926,-201.1639 376.5259,-439.6566 2.0073,-64.4015 12.6982,-62.5722 -100.8301,-17.2932 -47.4832,18.938 -103.3768,40.8957 -124.2065,48.7874 -53.7129,20.3503 -102.5784,50.2966 -135.7015,83.1706 -4.6212,4.5864 -9.1298,8.935 -13.2446,12.7767 -7.4927,6.6963 -12.5762,9.5481 -17.6799,8.1787 -6.861,-1.841 -5.9186,-51.5037 -6.5918,-65.4094 1.1164,-53.0011 8.0077,-133.3645 15.4419,-210.673 11.1131,-106.7108 24.8994,-222.1726 39.7746,-274.6989 22.2376,-78.5234 20.9367,-77.1043 73.7711,-79.3457 48.1389,-2.0422 103.9964,-25.5923 210.1441,-88.562 59.2464,-35.1466 179.3083,-148.5125 218.6076,-206.4209 18.3769,-27.0787 -95.8211,-65.8504 -203.654,-69.1325 -10.2909,-0.3132 -18.8416,-0.6122 -25.7568,-1.0986 -0.8312,-0.059 -1.414,-0.1589 -2.1973,-0.2238 -18.6666,-1.5477 -23.9971,-4.8179 -17.273,-14.5874 -0.085,0.088 -0.1594,0.1764 -0.2441,0.2645 2.2602,-3.3383 5.9796,-7.4808 11.0067,-12.5529 -4.8948,4.953 -8.4911,8.9882 -10.7626,12.2884 11.8328,-12.3046 23.6609,-24.585 34.8104,-34.668 -1.773,1.6001 -3.7721,2.9207 -5.5135,4.5573 8.9783,-8.4382 18.3355,-16.4469 28.0355,-24.0072 -6.9014,5.6812 -13.8894,11.6997 -20.9961,18.0868 11.3019,-10.1364 23.2896,-19.4461 35.6242,-28.2389 2.3603,-1.68 4.7471,-3.3146 7.1411,-4.9439 10.8729,-7.4126 22.1029,-14.2601 33.5897,-20.6095 2.9095,-1.6034 5.8046,-3.2272 8.7484,-4.7608 11.1502,-5.8271 22.5692,-11.0425 34.139,-15.8488 3.4802,-1.4392 6.9254,-2.9477 10.437,-4.2928 11.142,-4.2877 22.4618,-7.9314 33.8541,-11.2508 4.1114,-1.1905 8.1939,-2.5186 12.3291,-3.5807 10.8919,-2.8158 21.8785,-4.9093 32.8776,-6.8156 4.6379,-0.7966 9.2496,-1.8294 13.8957,-2.4618 10.6985,-1.4709 21.3967,-2.1451 32.0842,-2.7262 4.8419,-0.2575 9.6986,-0.8433 14.5263,-0.9155 11.0915,-0.1769 22.0641,0.5604 33.02,1.3834 4.2461,0.3218 8.5605,0.2382 12.7767,0.7121 15.0435,1.6839 29.9127,4.2422 44.4336,7.9142 57.9705,14.6595 57.8069,14.4554 45.634,55.6845 -42.0362,142.3915 23.0469,325.629 171.0205,481.486 35.6574,37.5571 68.0438,63.5782 74.4018,60.3841 0.054,-0.027 0.092,-0.05 0.1425,-0.081 0.5052,-0.3158 0.8278,-0.8514 0.9358,-1.6073 0.3421,-2.3936 0.2947,-28.6319 -0.1017,-58.3089 -0.9314,-69.6939 26.5416,-272.0077 35.4411,-260.9863 26.3224,32.5999 58.1419,110.3257 82.2754,188.7817 18.09,58.8107 31.8529,118.021 35.7666,158.9763 1.3046,13.6517 1.5195,25.2806 0.4272,34.1796 v 0.02 0.02 c 0,0.032 -0.016,0.07 -0.02,0.1018 -0.3493,1.2738 -4.6204,11.3271 -3.5808,13.1632 -4.1973,5.704 -24.1539,8.7767 -188.5986,35.6852 -355.6849,58.2017 -322.9458,41.7062 -294.4743,148.4172 73.1532,274.1778 77.3448,477.0388 12.8785,623.0062 -103.8645,235.1747 -65.4204,395.971 117.0247,489.5833 97.6393,50.0985 142.6687,57.5423 445.1497,73.6084 74.2198,3.9421 174.8845,3.0962 227.7019,-1.9124 326.0873,-30.9227 419.802,-170.939 320.2514,-478.5157 -64.0928,-198.0245 -62.5029,-190.6114 -68.6238,-319.9666 -10.6851,-225.8116 1.3854,-357.913 42.0328,-460.0423 22.0181,-55.3219 22.2354,-54.6398 -21.1181,-68.0135 -85.1254,-26.2593 -206.618,-39.2787 -380.1066,-40.7512 -76.353,-0.648 -140.3911,-2.469 -144.3889,-4.0893 0.047,0 0.096,-0.015 0.1424,-0.02 11.0001,-41.1604 76.5702,-206.0892 142.8427,-347.6562 105.7031,-225.7897 269.1457,-375.6784 418.0908,-383.3822 87.4794,-4.52398 126.1643,10.1322 73.1811,27.7303 -35.8403,11.9048 -74.8024,41.8579 -156.7586,120.4834 -73.0222,70.0548 -78.4597,82.2702 -31.8807,71.5332 7.1457,-1.647 14.671,-2.9719 22.6237,-3.9469 55.669,-6.8251 132.6218,2.9763 252.0752,31.5145 66.3249,15.8448 159.0667,19.0225 211.8734,7.2632 76.0644,-16.9348 124.5732,74.8216 203.8777,385.6811 22.2362,87.1607 25.4937,82.4676 -43.4366,62.6221 -43.8435,-12.6214 -181.9798,-11.5911 -278.0559,2.0548 -41.4615,5.8889 -77.2013,10.7365 -79.4271,10.7829 -13.4326,0.2806 1.1073,12.968 35.0749,30.599 41.5641,21.5744 80.8676,58.3165 202.535,189.3514 77.6765,83.6564 120.429,111.7259 199.6867,131.1238 29.4385,7.2052 31.4863,12.7372 36.0107,97.1477 13.4828,251.5315 48.5778,436.7977 107.544,567.7693 26.8777,59.6994 20.5919,67.0141 -33.1014,38.4522 -76.2619,-40.5623 -249.3761,-12.6169 -351.5422,56.7627 -40.3989,27.4341 -44.691,19.7612 33.1218,59.143 36.3544,18.3995 91.5812,51.8553 122.7417,74.3409 117.0346,84.451 245.476,123.4713 336.2426,102.1728 48.9056,-11.4756 61.7808,-10.7179 87.3414,5.0252 2.9288,1.804 5.9683,3.3482 9.0738,4.7404 0.9028,0.4048 1.8295,0.7484 2.7466,1.119 2.3147,0.9354 4.6777,1.7616 7.0801,2.4821 0.9737,0.2919 1.9422,0.5974 2.9297,0.8545 2.7359,0.7125 5.5239,1.2798 8.3618,1.7293 0.6557,0.104 1.2922,0.2558 1.9531,0.3459 3.3621,0.4579 6.8037,0.7082 10.2946,0.8138 1.108,0.034 2.2367,0 3.357,0 2.1335,0 4.2935,-0.097 6.4697,-0.2238 5.502,-0.3203 11.0983,-0.9414 16.8457,-2.0345 0.1247,-0.024 0.2414,-0.017 0.3662,-0.041 0.4779,-0.092 0.9852,-0.2686 1.4648,-0.3662 4.9264,-1.0005 9.9387,-2.3281 15.0147,-3.8656 0.659,-0.1997 1.2922,-0.2799 1.9531,-0.4882 0.6146,-0.1938 1.2552,-0.5108 1.8718,-0.7121 3.2747,-1.0693 6.6231,-2.4429 9.9487,-3.7232 5.7466,-2.2118 11.5428,-4.7091 17.4154,-7.5276 2.7065,-1.2991 5.3894,-2.5643 8.1176,-3.9877 3.2721,-1.7068 6.5692,-3.7952 9.8674,-5.6762 11.1287,-6.3469 22.3419,-13.5826 33.6304,-21.7896 2.1732,-1.5797 4.3155,-2.9332 6.49,-4.5776 12.079,-9.1348 24.0675,-19.483 36.0311,-30.4769 16.937,-15.5602 33.6058,-32.5489 49.6826,-51.2695 2.7268,-3.1751 5.1839,-6.7347 7.8736,-9.9895 13.3049,-16.0986 26.0124,-33.0274 38.1469,-50.8422 4.6648,-6.8466 8.96,-13.7936 13.4074,-20.8537 10.0362,-15.9277 19.3103,-32.2414 28.0355,-49.0723 3.6897,-7.1158 7.4653,-14.0158 10.8846,-21.2606 11.2479,-23.825 21.4507,-48.0622 29.2765,-72.8353 20.2292,-64.0372 18.4285,-68.132 -19.5312,-44.1691 -12.0587,7.6122 -58.749,28.5064 -103.7598,46.4274 -125.1531,49.8302 -183.4633,87.6164 -235.616,152.6693 -13.3547,16.658 -29.1395,36.2531 -35.0749,43.5588 -21.8234,26.8518 -107.8603,-116.3924 -159.0373,-264.8112 -26.6671,-77.3373 -27.4321,-68.6327 8.016,-91.3086 142.7042,-91.2944 202.676,-317.3136 137.4105,-517.924 -24.8909,-76.5082 -27.0265,-77.984 -46.9361,-32.5521 -27.5566,62.8778 -133.6119,200.7582 -163.798,215.4541 -0.5031,0.2449 -0.9842,0.4551 -1.4445,0.6307 -1.3807,0.5267 -2.5708,0.7408 -3.54,0.6104 -3.5133,-0.4731 -5.9892,-2.8928 -8.3822,-14.5671 0,-0.01 0,-0.015 0,-0.02 -3.9905,-19.4888 -7.7602,-64.7529 -15.747,-169.8202 -4.7375,-62.3214 -11.0678,-131.5306 -14.0788,-153.7882 -11.9566,-88.384 -22.9047,-155.93 -32.3487,-199.646 -8.8111,-40.7869 -9.0167,-47.0639 -1.892,-56.661 60.7086,-81.7771 74.1867,-122.37 91.4103,-275.1872 13.6014,-120.6836 7.8277,-200.1309 -24.4141,-335.7544 -21.7073,-91.31068 -26.0987,-97.66478 -45.6136,-65.87726 -8.0787,13.15912 -21.2962,33.6412 -29.3783,45.51186 -33.7011,49.5007 -106.7033,184.4235 -119.6085,221.0694 -12.9735,36.8392 -15.2643,36.1431 -48.055,-14.2009 -139.8286,-214.67237 -399.8677,-317.22625 -589.8234,-232.60497 -36.62,16.31325 -43.1446,13.16378 -36.0515,-17.43571 28.0421,-120.98703 -22.4109,-272.80636 -123.6165,-371.98893 -37.8466,-37.09005 -39.1737,-36.71585 -44.4946,13.08187 -2.5818,24.15936 -20.2424,85.68793 -49.9064,173.86882 -86.1268,256.02622 -91.3613,340.58142 -25.7365,415.32392 23.0534,26.2564 22.8888,26.8825 -26.4283,109.0698 -35.5807,59.2964 -89.7633,170.7022 -138.0818,283.8745 -3.2516,7.6157 -6.5164,11.7572 -9.6436,12.5732 -0.2978,0.078 -0.6,0.125 -0.8952,0.1425 -6.0499,0.3578 -11.5014,-11.9156 -15.1774,-35.7666 -43.6588,-283.2434 -307.0341,-560.1912 -538.798,-566.56905 -44.4841,-1.22416 -44.4677,-1.23178 -43.2943,-25.5127 7.1537,-148.02905 -6.891,-305.85934 -34.5459,-388.26497 -6.4489,-19.21659 -11.1559,-29.11637 -16.927,-28.9917 z" /></g><g
     inkscape:groupmode="layer"
     id="layer4"
     inkscape:label="FG1"
     style="display:inline;opacity:1;stroke:#1f2e1f;stroke-opacity:1"><path
       id="path16"
       style="display:inline;fill:#ffffff;fill-opacity:1;stroke:none;stroke-opacity:1;stroke-width:20;stroke-dasharray:none"
       d="m 2767.2119,1062.6424 c -17.1496,0.4203 -38.8217,121.8906 -42.7043,249.8169 -3.2362,106.6319 -3.5151,108.6037 -19.5719,140.2995 -8.9565,17.6801 -40.5696,82.6895 -73.466,142.7612 -70.4049,128.5657 -116.4636,237.3561 -137.2884,286.5601 -20.1734,47.665 -35.6741,94.7138 -46.2239,119.5272 -4.7802,11.2428 -21.2161,2.8452 -25.8586,-32.1249 -10.72,-80.7497 -93.6325,-276.9599 -153.1169,-382.0597 -82.3794,-145.5516 -243.188,-235.2537 -400.5534,-235.0871 -65.9932,0.07 -92.825,6.866 -165.5273,29.5817 -32.3573,10.11 -34.3227,6.2621 -13.6108,-26.7334 25.5841,-40.7571 95.5502,-197.4508 95.6624,-214.2537 0.177,-26.4924 -19.6895,-11.1683 -29.7241,22.9288 -24.594,83.5689 -137.1748,241.9388 -172.3633,283.8542 -25.7899,30.72 -39.4863,51.7167 -78.125,93.1804 -114.6839,123.0688 -237.4547,340.4245 -262.0646,503.9672 -9.8646,65.554 -100.1602,-36.2595 -161.4584,-152.8523 -17.5762,-33.4309 -26.633,-41.3698 -32.6945,-25.5738 -11.821,30.805 49.5468,120.6222 122.3552,201.1516 44.9616,49.7295 44.4155,87.7451 46.6512,101.9083 4.3146,27.3329 -4.1,344.3568 -1.4648,471.639 2.1556,104.1203 -12.4123,317.8043 -135.5184,487.6099 -60.5374,83.5018 -65.1413,84.5277 -143.18852,55.6234 -112.67469,-41.7284 -143.0956,-74.9918 -193.56282,-193.0542 -33.33869,-77.9921 -42.22441,-79.8372 -22.13542,-6.6122 33.40021,121.7448 77.84886,171.1145 205.66813,221.2932 66.79734,26.2229 91.27333,19.8327 113.24053,10.8032 5.1775,-2.1282 19.8953,-11.4163 36.6822,-16.2964 69.016,-20.0635 227.0377,-156.0467 200.4394,-172.4854 -3.0531,-1.8869 -24.5259,14.4051 -47.7091,36.2142 -107.6233,101.2443 -158.9715,127.2269 -116.3534,58.8583 40.7139,-65.3138 68.7662,-120.5731 91.2883,-196.8994 52.452,-177.7573 195.1937,-370.8483 354.8584,-451.7619 31.9501,-16.1914 41.0238,-31.7587 18.514,-31.7587 -50.2015,0 -256.6753,172.2802 -305.2979,261.7798 -27.2761,50.2071 -30.8931,-154.5399 -32.0841,-192.2811 -0.4427,-16.6845 -0.9845,-45.3309 -0.1628,-77.3722 4.8784,-190.2101 -2.53,-180.3199 21.5658,-344.5434 31.2172,-212.7585 105.641,-333.3168 309.9975,-401.5097 33.2298,-11.0886 86.7348,-55.5585 74.9919,-67.3014 -10.3064,-10.3063 -160.06,54.5186 -207.2754,89.7217 -38.3586,28.5996 -47.5364,26.2977 7.609,-51.3916 40.533,-57.1031 75.475,-97.4735 108.5002,-131.8359 2.2602,-3.3383 5.9796,-7.4809 11.0067,-12.5529 4.8948,-4.9531 11.0881,-10.824 18.5343,-17.8223 8.9783,-8.4382 18.3355,-16.4469 28.0355,-24.0072 42.2038,-34.7418 80.868,-56.9476 119.5272,-74.768 25.0133,-11.5303 65.9529,-20.7099 90.7999,-21.6472 65.3071,-2.4635 153.4734,10.605 190.6128,25.6958 30.9818,12.5888 54.0379,22.7281 80.6885,42.7653 40.5573,30.4929 38.0538,42.6243 35.2376,201.1923 -2.7167,152.9624 5.0916,164.5711 22.6034,164.5711 9.2648,0 10.2117,-2.1736 6.5714,-14.8519 -2.3433,-8.1612 -4.8416,-57.3181 -5.5745,-109.2529 -0.7328,-51.9349 -1.8859,-114.5203 -2.5431,-139.0788 -5.0422,-188.4386 245.1805,269.6269 257.548,471.4762 1.5821,25.821 3.9426,44.6784 -2.0549,49.3775 -1.7687,1.3859 -4.7135,1.165 -6.7952,0.6713 -2.2753,-0.5397 -4.1078,-1.5619 -5.5949,-2.482 -0.078,-0.049 -0.1521,-0.1127 -0.2035,-0.2035 -4.1972,5.7039 -24.1539,8.7767 -188.5986,35.6852 -355.6849,58.2017 -322.9458,41.7062 -294.4743,148.4172 73.1532,274.1778 77.3448,477.0388 12.8785,623.0062 -103.8645,235.1747 -65.4204,395.971 117.0247,489.5833 97.6393,50.0985 142.6687,57.5423 445.1497,73.6084 74.2198,3.9421 174.8845,3.0962 227.7019,-1.9124 326.0873,-30.9227 419.802,-170.939 320.2514,-478.5157 -64.0928,-198.0245 -62.5029,-190.6114 -68.6238,-319.9666 -10.6851,-225.8116 1.3854,-357.913 42.0328,-460.0423 22.0181,-55.3219 22.2354,-54.6398 -21.1181,-68.0135 -85.1254,-26.2593 -206.618,-39.2787 -380.1066,-40.7512 -76.353,-0.648 -140.3911,-2.469 -144.3889,-4.0893 -4.9518,0.477 -11.5951,-2.2959 -11.1694,-6.1849 1.5204,-7.3228 4.6352,-16.8405 8.667,-29.1138 56.2453,-171.2193 228.7259,-517.8367 284.6476,-568.7256 199.1193,-181.1991 362.9897,-187.345 543.5384,-57.0678 58.2571,42.0361 58.57,54.7958 14.6891,48.8891 -97.5883,-13.136 -265.4743,7.8001 -306.722,38.2487 -20.2705,14.9635 -2.4738,17.4683 31.3925,8.8298 120.0628,-30.6252 313.7917,-30.3537 352.2338,0.6307 88.5384,71.3621 207.4381,254.8333 221.1711,373.881 4.5327,39.2929 16.2684,114.2439 27.0182,172.6481 34.9538,189.9053 34.8663,205.0541 -0.9969,176.8188 -56.5372,-44.512 -143.0675,-87.7685 -175.5574,-87.7685 -23.668,0 -15.0232,8.8564 14.9943,21.7285 169.1396,72.5306 210.6622,120.6798 220.7845,362.7726 4.7823,114.3777 20.9072,221.9343 42.2567,281.8807 5.389,15.1316 3.574,25.0103 2.5634,35.0749 -2.8882,28.765 19.6507,126.5975 88.1958,297.3022 52.2339,130.0835 52.3071,130.97 7.1615,114.7054 -94.9687,-34.2143 -259.3894,-65.5007 -272.9492,-51.9409 -8.9318,8.9318 -0.5806,17.6392 16.9271,17.6392 30.5947,0 127.8568,21.8402 194.2138,43.6198 52.1524,17.1174 72.8273,18.3367 91.5121,19.4702 20.5668,1.2476 26.3448,3.7391 47.5057,17.9647 64.7732,43.5444 123.1959,47.4881 188.0086,-11.8815 38.9282,-35.6589 131.6121,-140.0653 131.6121,-148.2544 0,-20.2197 -24.2951,-2.8022 -75.2563,53.955 -128.5168,143.1335 -216.2809,132.3944 -270.6096,15.2792 -8.7822,-18.9316 -22.2738,-58.3118 -34.8917,-85.551 -32.554,-70.277 -88.6638,-238.5786 -88.6638,-265.9301 0,-6.4975 11.6224,-23.9905 26.3265,-39.6322 53.8742,-57.3096 86.572,-151.9998 93.5059,-270.7316 2.2729,-38.9192 -15.0306,-42.8115 -19.7957,-4.4556 -13.971,112.4581 -28.9153,169.9108 -57.3731,220.5607 -19.825,35.2847 -33.6587,48.3267 -41.2394,38.8794 -17.8012,-22.1841 -41.2079,-177.2268 -49.9064,-330.6274 -3.0291,-53.4186 -9.2915,-112.8917 -13.916,-132.1818 -4.6246,-19.29 -10.4267,-66.6444 -12.8988,-105.2246 -2.4969,-38.9663 -11.8524,-106.1213 -21.0368,-151.0824 -9.0935,-44.5156 -18.9789,-100.3632 -21.9726,-124.1048 -2.9937,-23.7416 -7.8807,-61.9181 -10.8643,-84.8389 -5.1284,-39.3975 -4.6837,-43.1576 8.1584,-68.7256 28.8343,-57.4076 46.0487,-258.8717 22.5219,-263.5294 -8.4423,-1.6714 -7.9537,3.4738 -9.6028,48.4212 -5.0095,136.5403 -30.951,242.6577 -50.5168,175.7609 -18.7624,-64.1495 -110.2721,-198.7984 -176.2695,-259.3587 -19.9956,-18.3483 -44.9015,-46.6546 -57.8817,-60.7503 -161.5558,-175.4388 -387.1693,-202.932 -564.921,-53.4668 -35.4784,29.8326 -46.8575,33.5248 -49.4792,26.6927 -7.2302,-18.8418 2.4478,-204.5471 13.3463,-256.0832 15.8984,-75.1797 16.9382,-83.3624 11.6374,-91.9393 -1.6527,-2.6741 -3.3732,-3.9294 -5.1473,-3.8859 z m -77.6977,1390.5233 c 9.9963,0.3816 20.6119,3.7032 31.3517,10.7829 37.0904,24.4502 40.962,66.1952 9.0942,98.0631 -26.3335,26.3335 -49.1068,28.1729 -75.358,6.1035 -49.1861,-41.3509 -17.9059,-112.7522 30.6599,-114.9292 1.401,-0.063 2.8241,-0.075 4.2522,-0.02 z m -438.8225,33.8135 c 35.6498,-0.7235 70.4539,34.1168 58.3903,74.3815 -11.3949,38.033 -42.2041,51.658 -79.8136,35.2986 -38.9811,-16.9559 -45.6097,-66.6672 -12.797,-95.9879 10.3666,-9.2634 22.3371,-13.4511 34.2203,-13.6922 z m 599.1211,141.1336 c 49.0282,-0.979 84.5541,25.2146 84.5541,67.2404 0,48.5102 -74.5218,80.5991 -140.6047,60.5469 -78.2973,-23.7586 -65.6959,-100.2034 20.223,-122.64 12.4832,-3.2598 24.5134,-4.9214 35.8276,-5.1473 z m -749.8576,40.5477 c 36.4464,-0.3101 69.6557,12.6608 72.5302,41.8701 3.944,40.078 -67.5575,75.0852 -117.6351,57.5968 -37.6336,-13.1425 -53.9551,-24.8603 -53.9551,-38.7573 0,-37.9604 52.2004,-60.3109 99.06,-60.7096 z" /></g></svg>
